<svg xmlns="http://www.w3.org/2000/svg" viewBox="0 0 32 32"><g id="Layer_2" data-name="Layer 2"><g id="Layer_1-2" data-name="Layer 1"><path d="M26.67,0H5.33A5.35,5.35,0,0,0,0,5.33V26.67A5.35,5.35,0,0,0,5.33,32H26.67A5.35,5.35,0,0,0,32,26.67V5.33A5.35,5.35,0,0,0,26.67,0Zm-.48,10.68c0,.23,0,.46,0,.69,0,7.07-5.28,15.23-14.95,15.23a14.67,14.67,0,0,1-8.06-2.41,10.36,10.36,0,0,0,1.25.08A10.47,10.47,0,0,0,11,22a5.28,5.28,0,0,1-4.91-3.72,5.36,5.36,0,0,0,1,.1,5.22,5.22,0,0,0,1.38-.19,5.33,5.33,0,0,1-4.21-5.25v-.06a5.21,5.21,0,0,0,2.38.67A5.43,5.43,0,0,1,5,6.38,14.82,14.82,0,0,0,15.81,12a5.43,5.43,0,0,1-.14-1.22A5.31,5.31,0,0,1,20.93,5.4a5.22,5.22,0,0,1,3.84,1.69A10.44,10.44,0,0,0,28.1,5.8a5.38,5.38,0,0,1-2.31,3,10.19,10.19,0,0,0,3-.85A10.47,10.47,0,0,1,26.19,10.68Z"/></g></g></svg>